PathFileType	4	(X/Y/Z)	C:/Users/beibeiliu/ov580/test_trc/User3\sequence.26_training_dense_right.trc
DataRate	CameraRate	NumFrames	NumMarkers	Units	OrigDataRate	OrigDataStartFrame	OrigNumFrames
120	120	12	19	mm	120	79	105
Frame#	Time	ThumbCMC			ThumbMCP			ThumbIP			ThumbTip			IndexMCP			IndexPIP			IndexTip			MiddleMCP			MiddlePIP			MiddleTip			RingMCP			RingPIP			RingTip			PinkyMCP			PinkyPIP			PinkyTip			BackHand1			BackHand2			BackHand3	
		X0	Y0	Z0	X1	Y1	Z1	X2	Y2	Z2	X3	Y3	Z3	X4	Y4	Z4	X5	Y5	Z5	X6	Y6	Z6	X7	Y7	Z7	X8	Y8	Z8	X9	Y9	Z9	X10	Y10	Z10	X11	Y11	Z11	X12	Y12	Z12	X13	Y13	Z13	X14	Y14	Z14	X15	Y15	Z15	X16	Y16	Z16	X17	Y17	Z17	X18	Y18	Z18	
78	0.65	135.371	33.1032	19.6792	116.737	38.328	-2.47555	101.579	46.6378	-32.9796	94.5306	43.482	-54.056	143.575	26.8999	-55.8246	116.59	6.3904	-58.0346	123.222	3.02119	-24.5023	154.671	11.5757	-59.0563	131.952	-13.5636	-55.156	139.066	-6.59739	-17.0227	163.484	-8.86764	-53.6784	143.016	-27.7264	-41.0328	147.956	-14.2282	-11.4659	172.694	-22.2136	-46.1268	153.577	-35.5451	-35.2798	155.099	-22.8543	-6.76343	194.258	16.6709	-8.69742	195.17	14.2463	23.7115	171.622	35.7168	8.06612	
79	0.658333	144.099	40.7466	10.5571	128.695	50.5486	-11.8937	116.406	54.2992	-34.5376	107.291	56.271	-58.2754	144.47	21.4923	-65.4603	117.98	3.50019	-62.3544	117.332	9.97402	-30.1491	153.212	3.94339	-63.5633	125.253	-12.9577	-57.7344	135.032	-2.74636	-16.7343	160.121	-13.8218	-53.215	132.228	-27.1599	-41.6931	142.32	-12.8907	-11.865	166.168	-32.6768	-45.244	141.263	-33.8365	-35.793	147.22	-23.9947	-4.65774	195.31	5.75998	-11.5591	196.442	8.37481	16.8089	177.098	33.2406	2.47724	
80	0.666667	154.48	44.3277	6.73228	140.143	54.9839	-20.0719	128.263	61.0606	-43.5303	116.699	66.8266	-62.8846	153.083	14.0211	-70.0032	120.882	6.82132	-73.2369	112.7	9.85439	-40.7434	153.579	-4.52131	-66.9454	123.05	-15.1053	-62.5508	124.56	-3.17855	-24.1807	157.162	-20.7249	-54.8197	127.477	-26.5119	-46.8177	132.061	-12.5951	-15.2457	160.3	-35.1686	-43.5789	132.679	-36.7597	-34.2465	139.489	-22.3478	-6.5796	194.324	-2.46898	-13.551	196.636	0.187715	15.5398	183.266	28.3825	-2.22211	
81	0.675	160.998	43.8667	3.9718	147.343	54.4642	-20.5397	135.959	62.267	-45.641	125.624	60.842	-65.3498	157.992	14.5192	-72.3497	127.817	7.83334	-82.7185	106.934	9.8927	-55.4008	156.095	-10.3692	-71.5302	123.362	-15.2934	-69.1924	115.915	-4.32016	-33.7104	153.965	-26.2775	-56.1695	122.318	-25.9219	-49.831	124.264	-16.0867	-16.8785	154.661	-39.7959	-42.3556	127.698	-38.9221	-35.8238	126.012	-22.8651	-10.3414	193.374	-10.2018	-11.3894	198.938	-8.43023	17.3145	189.261	19.6341	-4.51062	
82	0.683333	164.472	44.7115	2.3264	150.52	52.9463	-20.9259	138.138	57.4814	-47.1362	125.847	59.674	-66.2663	161.843	9.93715	-72.3872	137.187	7.42816	-89.8638	109.796	5.10846	-76.4629	162.255	-9.43617	-71.1428	133.589	-12.4308	-84.8976	104.913	-10.2403	-51.2545	151.789	-27.4028	-56.4083	120.508	-26.7004	-53.037	111.739	-18.3234	-25.6265	154.785	-41.3071	-39.2088	124.913	-41.0523	-37.7582	115.215	-24.8791	-16.6567	192.481	-17.0541	-15.401	199.47	-10.5384	13.6507	190.102	17.3294	-7.45632	
83	0.691667	167.337	38.1719	3.79606	151.017	51.8379	-21.8459	138.016	57.5406	-44.4449	124.288	58.6219	-64.9231	165.133	9.00711	-70.6858	141.103	10.0458	-95.94	109.966	8.44061	-94.4212	165.458	-15.2949	-70.6309	140.21	-18.7916	-90.7797	102.408	-18.3453	-83.1941	151.285	-28.5299	-52.8881	121.3	-32.9193	-55.8759	97.5112	-20.1653	-33.4702	148.044	-44.7292	-39.6076	121.184	-41.3458	-39.9398	104.703	-29.6073	-24.6456	192.234	-23.173	-13.3752	198.492	-17.5474	18.6661	193.34	12.4583	-7.24054	
84	0.7	168.722	35.7355	2.24278	152.953	46.1253	-22.0842	137.267	56.0854	-47.1717	123.946	56.6295	-62.1632	162.732	10.8437	-73.4062	143.601	7.01531	-96.7813	117.154	6.57381	-108.35	160.96	-17.6348	-69.245	137.916	-23.8253	-94.496	104.337	-28.4485	-103.121	143.482	-31.9213	-53.9596	115.22	-38.3909	-54.691	89.8382	-24.8328	-42.639	147.335	-49.546	-33.7575	119.211	-50.9805	-38.6223	98.3289	-35.9047	-32.6328	188.232	-23.3811	-16.7361	196.682	-20.97	14.3439	190.968	6.23752	-9.00102	
85	0.708333	171.156	30.9874	-1.05127	156.351	44.8901	-22.6109	141.246	51.1955	-46.9048	129.013	61.2906	-62.4791	159.475	4.07937	-70.6775	144.866	5.47848	-96.4137	123.129	5.9819	-115.594	152.886	-22.3817	-72.7552	135.956	-28.6112	-90.4556	105.19	-30.1127	-111.842	136.18	-40.1847	-50.5281	112.218	-37.6579	-58.4223	81.2031	-32.2114	-50.6824	135.526	-53.1958	-33.0775	113.055	-54.179	-37.61	88.2274	-39.9939	-37.6841	183.15	-29.9058	-12.8601	192.006	-26.4068	17.7871	190.978	-0.186354	-5.98151	
86	0.716667	177.71	26.1904	-3.94281	166.38	43.0009	-23.5986	153.836	53.7021	-51.3258	143.211	63.2293	-64.1487	157.757	-1.83036	-74.6393	145.404	1.38123	-94.4339	125.603	2.50236	-119.233	148.247	-29.5387	-70.1989	129.498	-31.2374	-92.4307	103.377	-28.1987	-114.901	130.117	-43.694	-53.0212	107.668	-40.1465	-65.8135	79.7511	-31.9427	-70.4742	127.386	-55.0506	-30.1327	104.946	-55.9088	-39.7241	82.7708	-50.3449	-44.2698	174.034	-38.9184	-13.9114	188.257	-37.1901	15.0435	189.953	-9.92073	-11.8667	
87	0.725	184.779	17.2412	-1.66219	176.445	33.3477	-28.822	168.701	48.7188	-53.51	160.185	58.7018	-70.9494	157.34	-8.8161	-73.8081	146.93	-2.23	-94.7414	134.549	5.39597	-117.546	143.447	-31.2647	-72.0164	128.16	-27.9494	-92.5806	104.872	-26.9074	-114.15	128.119	-43.7806	-54.0491	106.837	-44.0489	-68.8553	84.6732	-37.2186	-82.1632	117.676	-55.3151	-27.2432	98.0397	-54.4984	-38.1192	73.0862	-51.8348	-45.7029	167.741	-47.1073	-10.6277	178.206	-43.7818	14.6554	187.803	-19.1292	-8.15133	
88	0.733333	191.667	6.39637	-0.892827	190.409	24.5166	-27.9555	184.433	35.8476	-52.3097	177.609	46.6087	-72.2029	157.907	-15.3879	-71.9198	147.73	-8.59721	-98.5101	137.458	1.97649	-120.859	137.878	-36.5981	-69.4859	125.456	-31.8018	-90.652	106.236	-23.585	-117.712	124.461	-41.0532	-55.4922	105.524	-40.7705	-73.1567	82.3487	-37.0672	-89.4662	112.173	-49.0066	-27.4263	88.7419	-49.0894	-37.7317	66.533	-44.4522	-49.6538	157.506	-48.2299	-13.1347	170.561	-49.7306	13.7188	185.695	-29.4931	-10.0426	
89	0.741667	193.989	-4.66348	-5.43005	197.601	11.9471	-27.327	198.944	25.1002	-55.1114	195.064	35.8424	-70.5098	160.529	-19.3953	-71.7767	156.379	-11.728	-96.0375	142.21	-6.85972	-121.758	136.53	-36.3361	-66.9298	125.258	-31.2579	-94.0286	108.683	-22.4117	-121.033	121.047	-39.5949	-54.8729	103.984	-38.5056	-70.3437	88.1398	-31.7126	-91.9267	103.113	-41.6148	-25.841	87.2108	-37.6272	-37.7067	66.3666	-32.6764	-47.85	149.222	-51.5517	-7.32181	158.88	-54.1518	17.4951	182.238	-37.7151	-11.5644	
